<svg xmlns="http://www.w3.org/2000/svg" viewBox="0 0 32 32"><path d="M16 30v-7" stroke="#6b8e3a" stroke-width="2.2" stroke-linecap="round"/><path d="M16 24c-4 0-8-1.5-9.5-4.5 3 .5 6 .6 9.5 2.5 3.5-1.9 6.5-2 9.5-2.5C24 22.5 20 24 16 24z" fill="#8a5a3b"/><circle cx="10.5" cy="15" r="5.2" fill="#f4f1ec"/><circle cx="21.5" cy="15" r="5.2" fill="#f4f1ec"/><circle cx="16" cy="10" r="6" fill="#ffffff"/><circle cx="16" cy="17" r="5.5" fill="#fbf9f6"/><path d="M13.5 8.5a3 3 0 0 1 3-2" stroke="#d9d4cc" stroke-width="1.2" fill="none" stroke-linecap="round"/><path d="M8 13.5a2.6 2.6 0 0 1 2.2-1.8M19.3 13.4a2.6 2.6 0 0 1 2.4-1.6" stroke="#ddd8cf" stroke-width="1.1" fill="none" stroke-linecap="round"/></svg>
